<svg id="svg" version="1.1" xmlns="http://www.w3.org/2000/svg" xmlns:xlink="http://www.w3.org/1999/xlink" width="400" height="206.89655172413794" viewBox="0, 0, 400,206.89655172413794"><g id="svgg"><path id="path0" d="M176.724 27.689 C 112.182 48.636,105.243 138.424,165.676 170.635 C 180.102 178.324,183.479 177.467,184.142 165.948 L 184.663 156.897 176.895 156.897 C 167.053 156.897,161.334 154.296,158.465 148.516 C 157.222 146.013,153.881 141.444,151.040 138.362 C 142.663 129.274,150.408 131.272,159.393 140.517 C 168.850 150.247,184.483 151.807,184.483 143.021 C 184.483 141.282,185.259 139.379,186.207 138.793 C 189.774 136.588,187.656 134.647,178.879 132.078 C 157.495 125.817,147.246 101.882,157.761 82.759 C 159.930 78.814,160.936 74.038,160.665 68.966 C 160.032 57.104,161.776 55.640,171.833 59.585 C 184.390 64.511,218.141 64.589,230.709 59.721 C 241.665 55.478,243.431 56.830,242.783 68.966 C 242.541 73.504,243.509 78.871,245.115 81.897 C 255.976 102.359,246.722 125.656,225.252 131.897 C 217.040 134.285,215.507 135.306,216.608 137.658 C 217.344 139.231,218.369 147.807,218.887 156.717 C 220.061 176.939,221.318 178.113,234.908 171.683 C 321.976 130.494,268.411 -2.068,176.724 27.689 " stroke="none" fill="#000000" fill-rule="evenodd"></path></g></svg>